<svg width="35" height="35" viewBox="0 0 35 35" fill="none" xmlns="http://www.w3.org/2000/svg">
    <path d="M17.5 13.7402C16.7564 13.7402 16.0295 13.9607 15.4112 14.3739C14.7929 14.787 14.311 15.3742 14.0264 16.0612C13.7419 16.7482 13.6674 17.5042 13.8125 18.2335C13.9576 18.9628 14.3156 19.6327 14.8414 20.1586C15.3673 20.6844 16.0372 21.0425 16.7665 21.1875C17.4958 21.3326 18.2518 21.2581 18.9388 20.9736C19.6258 20.689 20.213 20.2071 20.6261 19.5888C21.0393 18.9705 21.2598 18.2436 21.2598 17.5C21.2587 16.5032 20.8622 15.5475 20.1574 14.8426C19.4525 14.1378 18.4968 13.7413 17.5 13.7402ZM17.5 20.3027C16.9457 20.3027 16.4038 20.1384 15.9429 19.8304C15.482 19.5224 15.1227 19.0847 14.9106 18.5726C14.6985 18.0604 14.643 17.4969 14.7511 16.9532C14.8593 16.4095 15.1262 15.9101 15.5182 15.5182C15.9101 15.1262 16.4095 14.8593 16.9532 14.7511C17.4969 14.643 18.0604 14.6985 18.5726 14.9106C19.0847 15.1227 19.5224 15.482 19.8304 15.9429C20.1384 16.4038 20.3027 16.9457 20.3027 17.5C20.3019 18.2431 20.0064 18.9555 19.481 19.481C18.9555 20.0064 18.2431 20.3019 17.5 20.3027Z" fill="white"/>
    <path d="M19.1407 17.0215C19.0138 17.0215 18.8921 17.0719 18.8023 17.1616C18.7126 17.2514 18.6622 17.3731 18.6622 17.5C18.6615 17.7035 18.6076 17.9033 18.506 18.0796C18.4044 18.2558 18.2585 18.4025 18.0828 18.5051C18.0285 18.5368 17.9809 18.5788 17.9429 18.6289C17.9048 18.6789 17.877 18.7359 17.861 18.7967C17.845 18.8575 17.8411 18.9208 17.8496 18.9831C17.858 19.0453 17.8787 19.1053 17.9103 19.1596C17.942 19.2139 17.984 19.2614 18.0341 19.2995C18.0841 19.3375 18.1411 19.3654 18.2019 19.3814C18.2627 19.3974 18.326 19.4013 18.3883 19.3928C18.4505 19.3843 18.5105 19.3637 18.5648 19.332C18.8849 19.1449 19.1505 18.8775 19.3355 18.5561C19.5204 18.2348 19.6182 17.8707 19.6192 17.5C19.6192 17.3731 19.5688 17.2514 19.4791 17.1616C19.3893 17.0719 19.2676 17.0215 19.1407 17.0215Z" fill="white"/>
    <path d="M29.8676 16.3816C30.042 16.4275 30.2216 16.451 30.4019 16.4516C30.8208 16.4514 31.2303 16.327 31.5786 16.0941C31.9269 15.8613 32.1983 15.5304 32.3587 15.1434C32.519 14.7563 32.5611 14.3304 32.4795 13.9195C32.3979 13.5086 32.1964 13.1311 31.9003 12.8346C31.8656 12.8002 31.8287 12.769 31.791 12.737C32.1464 11.448 32.0644 10.3253 31.5304 9.39941C30.3819 7.40879 27.3662 6.75664 23.2283 7.58051C21.8685 3.58504 19.7947 1.29883 17.5 1.29883C15.2053 1.29883 13.1319 3.58477 11.7707 7.58078C7.63193 6.75637 4.61701 7.40879 3.46884 9.39914C2.95123 10.2933 2.86045 11.4168 3.19049 12.664C2.80092 12.969 2.53035 13.4007 2.42567 13.8842C2.32099 14.3677 2.38879 14.8727 2.61733 15.3115C2.84587 15.7503 3.22074 16.0953 3.67696 16.2867C4.13318 16.4781 4.642 16.5039 5.11521 16.3595C5.39904 16.7371 5.70994 17.1191 6.0449 17.5016C3.26431 20.6746 2.32123 23.6121 3.46857 25.6006C4.29299 27.0298 6.07744 27.7711 8.54986 27.7711C9.63219 27.7579 10.7107 27.6396 11.7701 27.4179C13.131 31.4144 15.2051 33.7012 17.5 33.7012C18.5369 33.7012 19.5595 33.215 20.4786 32.3001C20.9307 32.4982 21.4379 32.5322 21.9125 32.3961C22.387 32.26 22.7991 31.9624 23.0776 31.5548C23.356 31.1471 23.4833 30.655 23.4375 30.1635C23.3917 29.6719 23.1756 29.2118 22.8266 28.8627C22.7921 28.828 22.7552 28.7965 22.7188 28.7648C22.8979 28.3412 23.0694 27.8898 23.2313 27.4179C24.2902 27.6397 25.3683 27.758 26.4502 27.7711C28.9223 27.7711 30.7071 27.0296 31.5315 25.6006C32.6799 23.6121 31.7357 20.6746 28.9557 17.5019C29.2783 17.1336 29.583 16.759 29.8676 16.3816ZM31.2233 15.155C31.0052 15.3725 30.7098 15.4946 30.4018 15.4946C30.0938 15.4946 29.7983 15.3725 29.5802 15.155C29.4179 14.9925 29.3073 14.7855 29.2626 14.5602C29.2178 14.335 29.2409 14.1014 29.3288 13.8893C29.4168 13.6771 29.5657 13.4957 29.7567 13.3681C29.9477 13.2405 30.1722 13.1724 30.4019 13.1724C30.6316 13.1724 30.8561 13.2405 31.0471 13.3681C31.2381 13.4957 31.387 13.6771 31.475 13.8893C31.5629 14.1014 31.586 14.335 31.5412 14.5602C31.4965 14.7855 31.3859 14.9925 31.2236 15.155H31.2233ZM30.7024 9.87766C31.0767 10.5276 31.1489 11.3356 30.9236 12.2839C30.4743 12.1696 29.9998 12.206 29.5731 12.3874C29.1464 12.5688 28.791 12.8852 28.5615 13.2881C28.332 13.691 28.2411 14.158 28.3026 14.6176C28.3642 15.0771 28.5749 15.5038 28.9024 15.832C28.9368 15.8668 28.9737 15.8979 29.0101 15.9299C28.7881 16.219 28.5536 16.506 28.3068 16.7907C27.1339 15.5728 25.8564 14.4601 24.4891 13.4654C24.3105 11.7846 23.9866 10.1223 23.5211 8.49734C27.1272 7.80008 29.794 8.30293 30.7024 9.87738V9.87766ZM22.5829 26.2998C21.2517 25.9749 19.9466 25.5507 18.6788 25.0307C19.495 24.6362 20.3079 24.2074 21.1056 23.747C21.9095 23.2821 22.6874 22.7921 23.4298 22.2849C23.2483 23.6425 22.9652 24.9845 22.5829 26.2998ZM12.4171 26.2998C12.0346 24.9845 11.7512 23.6425 11.5694 22.2849C12.3137 22.7921 13.0914 23.2827 13.895 23.747C14.6918 24.2074 15.5039 24.6367 16.3215 25.0307C15.0536 25.5507 13.7484 25.9749 12.4171 26.2998ZM12.4171 8.70023C13.7484 9.02503 15.0534 9.44923 16.3212 9.96926C15.5047 10.3638 14.6921 10.7926 13.8945 11.2544C13.0906 11.7193 12.3126 12.2093 11.5689 12.7165C11.7507 11.3584 12.0343 10.0159 12.4171 8.70023ZM10.3906 20.2437C9.30517 19.4078 8.28486 18.4906 7.33853 17.5C8.28494 16.5095 9.30525 15.5923 10.3906 14.7563C10.3231 15.6587 10.2873 16.5782 10.2873 17.5C10.2873 18.4218 10.3226 19.3402 10.3906 20.2437ZM14.3738 22.9179C13.338 22.3199 12.3468 21.6779 11.4188 21.0101C11.3045 19.8641 11.2443 18.6859 11.2443 17.5C11.2443 16.3141 11.3045 15.1361 11.4188 13.9899C12.346 13.3227 13.3375 12.6804 14.3738 12.0821C15.3992 11.4896 16.4503 10.9509 17.5003 10.4748C18.5511 10.9512 19.6019 11.4898 20.6273 12.0821C21.6631 12.6801 22.6543 13.3221 23.5824 13.9899C23.6967 15.1359 23.7568 16.3141 23.7568 17.5C23.7568 18.6859 23.6967 19.8639 23.5824 21.0101C22.6551 21.6773 21.6637 22.3196 20.6273 22.9179C19.6019 23.5104 18.5508 24.0491 17.5008 24.5252C16.4495 24.0488 15.3987 23.5102 14.3733 22.9179H14.3738ZM22.5835 8.69914C22.966 10.0144 23.2494 11.3564 23.4312 12.714C22.6869 12.2068 21.9092 11.7163 21.1069 11.252C20.3082 10.7926 19.4961 10.3633 18.6785 9.96926C19.9465 9.44926 21.2516 9.02507 22.5829 8.70023L22.5835 8.69914ZM24.6094 14.7563C25.6949 15.5922 26.7152 16.5094 27.6615 17.5C26.7151 18.4905 25.6948 19.4077 24.6094 20.2437C24.6769 19.3413 24.7128 18.4218 24.7128 17.5C24.7128 16.5782 24.6775 15.6598 24.6094 14.7563ZM17.5 2.25586C19.3151 2.25586 21.0856 4.31457 22.2893 7.78613C20.6485 8.19402 19.046 8.74294 17.4997 9.42676C15.9537 8.74286 14.3514 8.19394 12.7108 7.78613C13.9147 4.3143 15.6849 2.25586 17.5 2.25586ZM3.67201 15.155C3.48129 14.9649 3.36243 14.7145 3.33567 14.4465C3.30891 14.1785 3.37591 13.9096 3.52526 13.6855C3.67461 13.4614 3.89705 13.296 4.15468 13.2176C4.4123 13.1391 4.68916 13.1525 4.93805 13.2553C5.18694 13.3581 5.39247 13.5441 5.51959 13.7815C5.64671 14.0189 5.68756 14.2931 5.63518 14.5572C5.58279 14.8214 5.44041 15.0592 5.23231 15.2301C5.02421 15.4011 4.76326 15.4945 4.49396 15.4946C4.34125 15.4952 4.18994 15.4655 4.0488 15.4072C3.90765 15.3489 3.77949 15.2632 3.67174 15.155H3.67201ZM5.99213 12.8346C5.74451 12.5874 5.43956 12.4054 5.10447 12.3048C4.76938 12.2042 4.4146 12.1881 4.07177 12.2579C3.85084 11.3211 3.92466 10.5216 4.29736 9.87902C5.20599 8.30375 7.87283 7.8009 11.4789 8.49844C11.0134 10.1235 10.6894 11.7858 10.5107 13.4668C9.14328 14.4604 7.86572 15.5721 6.69267 16.7891C6.42634 16.4817 6.17752 16.1762 5.94619 15.8725C5.96123 15.8583 5.97736 15.8452 5.99213 15.8307C6.38906 15.433 6.612 14.8941 6.612 14.3322C6.612 13.7704 6.38906 13.2315 5.99213 12.8338V12.8346ZM4.29681 25.1221C3.39064 23.5493 4.28806 20.9874 6.69404 18.2109C7.86672 19.4283 9.14392 20.5404 10.511 21.5346C10.6895 23.2154 11.0134 24.8777 11.4789 26.5027C7.87256 27.1994 5.20572 26.6968 4.29736 25.1221H4.29681ZM22.1498 31.1828C21.9597 31.3736 21.7092 31.4925 21.4412 31.5193C21.1731 31.5461 20.9041 31.4791 20.6799 31.3297C20.4558 31.1803 20.2903 30.9578 20.2119 30.7001C20.1334 30.4424 20.1467 30.1655 20.2496 29.9166C20.3525 29.6676 20.5385 29.462 20.776 29.3349C21.0134 29.2077 21.2877 29.1669 21.5519 29.2193C21.8161 29.2717 22.054 29.4141 22.225 29.6223C22.3959 29.8305 22.4894 30.0915 22.4894 30.3609C22.4895 30.669 22.3674 30.9646 22.1498 31.1828ZM21.3295 28.2425C20.9262 28.2425 20.5313 28.3576 20.1912 28.5743C19.8511 28.791 19.5798 29.1002 19.4094 29.4658C19.239 29.8313 19.1765 30.2378 19.2292 30.6377C19.2819 31.0375 19.4476 31.414 19.7069 31.7229C18.996 32.4002 18.2555 32.7441 17.5014 32.7441C15.6863 32.7441 13.9158 30.6854 12.7121 27.2139C14.3529 26.806 15.9554 26.2571 17.5017 25.5732C19.0481 26.2572 20.6507 26.8061 22.2917 27.2139C22.1578 27.598 22.0183 27.9658 21.8723 28.3145C21.6948 28.2671 21.5119 28.2429 21.3281 28.2425H21.3295ZM30.704 25.1221C29.7954 26.6971 27.1286 27.2002 23.5225 26.5027C23.988 24.8776 24.312 23.2153 24.4907 21.5343C25.8572 20.5402 27.1339 19.4282 28.306 18.2109C30.712 20.9874 31.6094 23.5493 30.7027 25.1221H30.704Z" fill="white"/>
</svg>
