<svg width="35" height="35" viewBox="0 0 35 35" fill="none" xmlns="http://www.w3.org/2000/svg">
    <g clip-path="url(#clip0)">
        <path d="M12.4704 22.2614C12.6544 22.0745 12.8988 21.9714 13.1581 21.9712H13.159C13.419 21.9712 13.6643 22.0745 13.8497 22.2621C14.0487 22.4635 14.3733 22.4654 14.5747 22.2664C14.7761 22.0674 14.7781 21.7428 14.579 21.5414C14.1992 21.1569 13.6948 20.9448 13.1572 20.9458C12.6213 20.9463 12.1179 21.158 11.7397 21.5421C11.5411 21.7438 11.5436 22.0685 11.7454 22.2671C11.8453 22.3654 11.9752 22.4145 12.1051 22.4145C12.2376 22.4145 12.3701 22.3634 12.4704 22.2614Z" fill="white"/>
        <path d="M21.3831 22.2615C21.5673 22.0743 21.8118 21.9713 22.0714 21.9713C22.331 21.9713 22.5754 22.0743 22.7596 22.2615C22.8601 22.3634 22.9925 22.4145 23.125 22.4145C23.2549 22.4145 23.3849 22.3655 23.4847 22.2671C23.6865 22.0685 23.689 21.7438 23.4904 21.5421C23.1118 21.1576 22.6079 20.9458 22.0714 20.9458C21.5348 20.9458 21.0309 21.1576 20.6523 21.5421C20.4537 21.7438 20.4562 22.0685 20.658 22.2671C20.8597 22.4658 21.1843 22.4634 21.3831 22.2615Z" fill="white"/>
        <path d="M19.18 28.5032C19.3804 28.3031 19.3805 27.9785 19.1804 27.7782C18.9802 27.5779 18.6556 27.5777 18.4553 27.7778C17.8658 28.3666 16.9055 28.3664 16.3144 27.7774C16.1138 27.5775 15.7891 27.578 15.5894 27.7786C15.3895 27.9792 15.39 28.3038 15.5907 28.5037C16.0859 28.9973 16.736 29.2441 17.3859 29.2441C18.0358 29.244 18.6857 28.9971 19.18 28.5032Z" fill="white"/>
        <path d="M30.7212 16.836C30.6716 14.8049 30.2969 12.9228 29.6051 11.2286C29.9534 10.9796 30.2735 10.6887 30.5616 10.3563C31.5282 9.24123 32.0603 7.74635 32.0603 6.14701C32.0603 4.54768 31.5281 3.05286 30.5616 1.93778C29.4629 0.670059 27.904 0 26.0535 0H24.5053C22.1371 0 20.1239 1.27511 19.1144 3.36807C17.3596 3.1636 15.5518 3.29656 13.8613 3.75758C11.9582 4.2767 10.2598 5.17385 8.81316 6.42421C6.79861 8.1656 4.4085 11.374 4.27889 16.8359C2.97432 17.0754 1.98242 18.2196 1.98242 19.5917V22.3586C1.98242 23.9039 3.2403 25.1612 4.78645 25.1612H6.59237C6.62416 25.4232 6.68076 25.693 6.76628 25.9927C6.98612 26.7702 7.41692 27.6028 8.04672 28.4675C8.14728 28.6056 8.30382 28.6789 8.46255 28.6789C8.56748 28.6789 8.6733 28.6469 8.76456 28.5804C8.99397 28.4135 9.04456 28.0922 8.87756 27.8629C8.3274 27.1076 7.93926 26.3642 7.75489 25.7121C7.64456 25.3257 7.59473 25.0196 7.58967 24.7016C7.59151 24.6838 7.59254 24.6658 7.59254 24.6476C7.59254 24.6271 7.59104 24.6071 7.58871 24.5873L7.59254 19.2263C7.59254 19.2263 7.59254 19.2262 7.59254 19.2261C7.59254 19.2261 7.59254 19.226 7.59254 19.2259V18.3774H8.2006C10.316 18.3774 11.1457 16.4399 11.6414 15.2823C11.726 15.0845 11.8061 14.8977 11.8807 14.7457C11.9593 14.5847 12.033 14.5713 12.0608 14.5664C12.1818 14.5443 12.3786 14.6242 12.5098 14.7486C14.6392 16.7582 17.2908 17.9469 20.3911 18.2816C20.6743 18.3122 20.9267 18.1081 20.9571 17.8261C20.9876 17.5441 20.7836 17.2908 20.5015 17.2603C17.6293 16.9503 15.1778 15.854 13.2163 14.0028C12.9217 13.7231 12.4159 13.459 11.8784 13.5555C11.4825 13.6269 11.1554 13.8895 10.9577 14.2942C10.8717 14.4692 10.7867 14.6678 10.6967 14.8781C10.1175 16.2306 9.52991 17.3502 8.20066 17.3502H7.59261V15.9733C7.58994 15.3028 8.18672 11.6288 11.0848 10.3478C11.5815 10.1357 11.9269 9.76712 12.2316 9.44186C12.3677 9.2966 12.4963 9.15934 12.6153 9.06329C14.1072 7.86099 16.2948 7.39361 18.6585 7.76125C18.9464 8.86744 19.5422 9.88388 20.4172 10.6896L20.3011 12.8276C20.2858 13.143 20.4486 13.3104 20.5471 13.382C20.6146 13.4312 20.734 13.495 20.8996 13.4949C20.9782 13.4949 21.0673 13.4805 21.166 13.4433C21.1843 13.4364 21.2021 13.4285 21.2196 13.4196L23.4123 12.2942H26.0091C26.863 13.5797 27.3336 15.0004 27.4076 16.5218V17.3502H22.7712C22.4874 17.3502 22.2574 17.5802 22.2574 17.8638C22.2574 18.1474 22.4874 18.3774 22.7712 18.3774H27.4075V18.6145V19.1137V23.9838C27.4075 24.4346 27.3361 25.3797 27.2409 25.7129C26.6755 27.7072 24.3582 30.2179 21.7416 31.7221C21.3619 31.1197 20.6906 30.7183 19.9268 30.7183H16.1892C15.2417 30.7183 14.4365 31.3357 14.1541 32.1887C12.8553 31.5743 11.5505 30.6726 10.4241 29.6037C10.2182 29.4085 9.89311 29.4168 9.69767 29.6226C9.5023 29.8283 9.5107 30.1534 9.71653 30.3487C11.0474 31.6115 12.5534 32.6227 14.089 33.2874C14.2881 34.2634 15.1541 35 16.1892 35H19.9268C20.9314 35 21.7764 34.3059 22.0074 33.3728H27.6365C29.3409 33.3728 30.7274 31.9663 30.7274 30.2374V25.1132C32.0289 24.8712 33.0176 23.7285 33.0176 22.3586V19.5917C33.0176 18.2196 32.0257 17.0755 30.7212 16.836ZM6.58895 19.2225L6.58547 24.1222H4.81448C3.83715 24.1222 3.04199 23.3272 3.04199 22.35V19.588C3.04199 18.6108 3.83715 17.8158 4.81448 17.8158H6.58895V19.2225ZM18.4791 6.69881C15.9568 6.38237 13.6147 6.93834 11.97 8.26376C11.795 8.40499 11.6356 8.57507 11.4814 8.73968C11.234 9.00382 10.978 9.27691 10.6792 9.40392C10.6771 9.40481 10.6748 9.40577 10.6727 9.40673C7.28034 10.9033 6.56106 15.0349 6.56482 15.9754V16.7891H5.30838C5.4211 12.7789 6.85891 9.47153 9.48541 7.20118C11.9792 5.04567 15.3187 4.02671 18.7313 4.35976C18.4995 5.13885 18.418 5.93045 18.4791 6.69881ZM19.9215 33.9437H16.1921C15.5783 33.9437 15.0788 33.445 15.0788 32.8321C15.0788 32.2191 15.5783 31.7204 16.1921 31.7204H19.9215C20.5353 31.7204 21.0347 32.2191 21.0347 32.8321C21.0347 33.445 20.5353 33.9437 19.9215 33.9437ZM23.3898 11.2779L23.3618 11.2778C23.3587 11.2778 23.3555 11.2778 23.3524 11.2778C23.1791 11.2778 23.0988 11.3041 22.9469 11.3829L21.3562 12.1998L21.4445 10.5725C21.4703 10.403 21.4167 10.2387 21.2937 10.1153C21.2837 10.1052 21.2732 10.0956 21.2624 10.0864C19.6179 8.69046 19.0533 6.43248 19.8237 4.33412C20.4056 2.74962 21.9369 1.05643 24.4899 1.05643H26.0346C29.4482 1.05643 31.0029 3.70569 31.0029 6.16718C31.0029 7.51714 30.5607 8.77092 29.7579 9.69767C28.8621 10.7315 27.5746 11.278 26.0346 11.278H23.3898V11.2779ZM27.1437 12.2172C27.691 12.1299 28.2054 11.9764 28.6811 11.7588C29.2826 13.2804 29.6126 14.9682 29.6646 16.7903H28.411V16.5111C28.411 16.503 28.4108 16.495 28.4104 16.4869C28.3385 14.9633 27.9121 13.5311 27.1437 12.2172ZM29.6728 30.2148C29.6728 31.3752 28.7493 32.3193 27.6142 32.3193H22.689C25.356 30.6612 27.5996 28.1179 28.2058 25.9789C28.265 25.7711 28.31 25.4643 28.3425 25.1476H29.6728V30.2148ZM31.958 22.35C31.958 23.3272 31.1629 24.1222 30.1855 24.1222H28.4089C28.4103 24.0647 28.411 24.0139 28.411 23.9724V19.1109V18.6125V17.8157H30.1855C31.1629 17.8157 31.958 18.6107 31.958 19.5879V22.35Z" fill="white"/>
        <path d="M25.2458 5.67273C24.9626 5.67273 24.7332 5.90228 24.7332 6.18542V8.61518C24.7332 8.89833 24.9626 9.12788 25.2458 9.12788C25.5291 9.12788 25.7585 8.89833 25.7585 8.61518V6.18542C25.7585 5.90228 25.529 5.67273 25.2458 5.67273Z" fill="white"/>
        <path d="M25.2458 3.10681C24.9626 3.10681 24.7332 3.33923 24.7332 3.62238C24.7332 3.90552 24.9626 4.13507 25.2458 4.13507C25.5291 4.13507 25.7585 3.90552 25.7585 3.62238V3.61657C25.7585 3.33342 25.529 3.10681 25.2458 3.10681Z" fill="white"/>
    </g>
    <defs>
        <clipPath id="clip0">
            <rect width="35" height="35" fill="white"/>
        </clipPath>
    </defs>
</svg>
