<svg width="142" height="103" viewBox="0 0 142 103" fill="none" xmlns="http://www.w3.org/2000/svg">
    <g clip-path="url(#clip0)">
        <path d="M121.798 0.762932L18.2818 3.45414C9.36822 3.68364 2.33153 11.0888 2.56125 19.9934L3.81172 67.9798C4.04457 76.8837 11.4572 83.9132 20.3709 83.6837L44.1676 83.0641C46.0898 83.0139 47.9675 83.6523 49.4602 84.8603L69.8086 101.354C71.4632 102.695 73.851 102.635 75.4348 101.206L94.8979 83.68C96.3271 82.396 98.1676 81.6621 100.09 81.6121L123.887 80.9923C132.799 80.7599 139.836 73.3547 139.606 64.4501L138.357 16.4667C138.124 7.56299 130.71 0.530325 121.798 0.762932Z" fill="#E64652"/>
        <path d="M71.7917 69.3695L48.9874 53.1234C46.4712 51.3323 44.4309 48.8994 43.3559 46.0094C38.9353 34.1402 50.6662 20.0032 64.2372 25.6919C64.5533 25.8216 64.8657 25.9622 65.1778 26.1133L70.7344 28.7973L76.1474 25.8296C76.4498 25.6604 76.7558 25.5035 77.0612 25.3568C90.3205 18.9747 102.771 32.4815 98.974 44.5656C98.0498 47.5073 96.1387 50.0439 93.7203 51.9632L71.7917 69.3695Z" fill="white"/>
    </g>
    <defs>
        <clipPath id="clip0">
            <rect width="141" height="102" fill="white" transform="translate(0.499878 0.5)"/>
        </clipPath>
    </defs>
</svg>
