<svg width="20" height="20" viewBox="0 0 20 20" fill="none" xmlns="http://www.w3.org/2000/svg">
    <g clip-path="url(#clip0)">
        <path d="M2.94128 17.1958C3.84378 18.0659 4.92355 18.7752 6.1806 19.2587C7.43765 19.7421 8.83975 20 10.3547 20C12.0468 20 13.6101 19.7421 15.0122 19.2105C16.2854 18.7431 15.1895 16.3739 14.2547 16.7608C13.2235 17.196 11.9663 17.4216 10.5318 17.4216C9.40365 17.4216 8.37238 17.2443 7.46972 16.906C6.56723 16.5674 5.77754 16.084 5.1329 15.4556C4.48826 14.8271 3.97255 14.0535 3.61799 13.1671C3.24732 12.2645 3.07005 11.2332 3.07005 10.1051C3.07005 9.04142 3.24732 8.02611 3.60188 7.12361C3.95643 6.22111 4.43991 5.41531 5.08455 4.77067C5.71308 4.10991 6.48665 3.57808 7.37303 3.20741C8.25941 2.83674 9.25861 2.64335 10.3545 2.64335C11.37 2.64335 12.3045 2.7884 13.1427 3.04625C13.9646 3.30411 14.6738 3.70701 15.2699 4.23884C15.8662 4.77067 16.3335 5.41531 16.672 6.18888C17.0106 6.96245 17.1717 7.86495 17.1717 8.89637C17.1717 9.49267 17.1073 10.0567 16.9782 10.5886C16.8494 11.0882 16.6883 11.5392 16.4626 11.894C16.253 12.2326 16.0112 12.5064 15.7213 12.6998C15.3827 12.9254 14.8831 13.0543 14.4963 12.9254C14.0128 12.7642 14.1097 12.0873 14.1418 11.6844C14.1903 11.1365 14.3352 10.6208 14.448 10.089C14.6252 9.21869 14.8186 8.36454 14.9959 7.5104C15.0926 7.04303 15.2053 6.55955 15.302 6.09218C15.4309 5.49589 14.9796 4.91571 14.3513 4.91571H13.6422C13.207 4.91571 12.8202 5.2058 12.7073 5.62482C12.6591 5.81821 12.6106 5.97937 12.6106 5.97937C12.2562 4.88348 10.9506 4.57728 9.9192 4.59339C8.56545 4.60951 7.32452 5.3025 6.42202 6.28558C6.34144 6.38227 6.24475 6.47897 6.16417 6.57566C5.6968 7.13973 5.34225 7.80048 5.10051 8.49347C4.84265 9.23481 4.71372 9.99226 4.71372 10.7658C4.71372 11.4268 4.81042 12.0551 4.98769 12.6192C5.18109 13.1995 5.45506 13.699 5.80961 14.118C6.16417 14.5371 6.61541 14.8754 7.14724 15.1172C7.67907 15.3589 8.27537 15.4878 8.92001 15.4878C9.40349 15.4878 9.85474 15.4073 10.2576 15.2624C10.6444 15.1173 10.999 14.94 11.3052 14.7305C11.5469 14.5694 11.7725 14.376 11.9498 14.1985C12.0625 14.4082 12.1916 14.5853 12.3688 14.7626C12.8202 15.2461 13.5131 15.4878 14.4319 15.4878C15.1571 15.4878 15.866 15.3429 16.5269 15.0529C17.1877 14.7626 17.7838 14.3114 18.2834 13.7313C18.7669 13.151 19.1698 12.4421 19.4599 11.604C19.7501 10.766 19.895 9.79903 19.895 8.73537C19.895 7.28493 19.6211 5.99565 19.0892 4.91587C18.5574 3.8361 17.8322 2.91749 16.9298 2.19226C16.0435 1.46704 15.012 0.935214 13.8678 0.564545C12.7398 0.177276 11.5634 0 10.3547 0C8.95256 0 7.61493 0.257857 6.374 0.757454C5.13306 1.27317 4.03717 1.98227 3.11856 2.86865C2.18383 3.75504 1.44249 4.83481 0.91066 6.04351C0.378831 7.25222 0.104858 8.60596 0.104858 10.0242C0.104858 11.4583 0.346599 12.8122 0.846196 14.021C1.32968 15.2458 2.03878 16.3094 2.94128 17.1958ZM11.6599 10.4271C11.5472 10.8622 11.3861 11.2812 11.1603 11.668C10.9347 12.0387 10.6607 12.3447 10.3061 12.5865C9.98383 12.8121 9.59704 12.9251 9.11356 12.9251C8.80736 12.9251 8.56562 12.8606 8.38834 12.7476C8.19495 12.6187 8.03379 12.4575 7.92097 12.248C7.79205 12.0224 7.71147 11.7807 7.66312 11.5389C7.61477 11.2811 7.58254 11.0393 7.58254 10.83C7.58254 10.3787 7.647 9.92748 7.77593 9.46011C7.90486 9.00886 8.08213 8.58985 8.32387 8.23529C8.56561 7.88074 8.83959 7.59065 9.17803 7.36503C9.48423 7.15552 9.82267 7.05882 10.2256 7.05882C10.5479 7.05882 10.8059 7.10717 10.9991 7.21998C11.1925 7.3328 11.3537 7.47784 11.4665 7.65512C11.5954 7.84851 11.676 8.07413 11.7403 8.31587C11.8048 8.58985 11.8372 8.87994 11.8372 9.15391C11.8211 9.55681 11.7729 9.97583 11.6599 10.4271Z" fill="#181818"/>
    </g>
    <defs>
        <clipPath id="clip0">
            <rect width="19.9998" height="20" fill="white"/>
        </clipPath>
    </defs>
</svg>
