<svg width="20" height="20" viewBox="0 0 20 20" fill="none" xmlns="http://www.w3.org/2000/svg">
    <g clip-path="url(#clip0)">
        <path d="M15.2052 13.2304C14.5518 12.5853 13.7361 12.5853 13.0869 13.2304C12.5916 13.7215 12.0964 14.2126 11.6094 14.712C11.4762 14.8494 11.3639 14.8785 11.2016 14.7869C10.8811 14.6121 10.5398 14.4706 10.2319 14.2792C8.79604 13.3761 7.59327 12.2149 6.52785 10.9081C5.9993 10.2589 5.52902 9.56385 5.20023 8.78143C5.13364 8.62328 5.14613 8.51924 5.27515 8.39022C5.7704 7.91161 6.25317 7.42052 6.7401 6.92943C7.41848 6.24689 7.41848 5.44782 6.73594 4.76112C6.34889 4.36991 5.96184 3.98703 5.5748 3.59582C5.17526 3.19628 4.77989 2.79259 4.37619 2.39721C3.72279 1.76046 2.90707 1.76046 2.25783 2.40138C1.75841 2.89247 1.27981 3.39605 0.772066 3.87882C0.301781 4.32413 0.0645578 4.86933 0.0146161 5.50609C-0.0644583 6.54238 0.189412 7.5204 0.547328 8.47346C1.27981 10.4462 2.39517 12.1983 3.74776 13.8047C5.5748 15.9772 7.75558 17.696 10.3068 18.9363C11.4554 19.4939 12.6457 19.9226 13.94 19.9934C14.8307 20.0433 15.6048 19.8186 16.2249 19.1235C16.6494 18.6491 17.128 18.2163 17.5775 17.7626C18.2433 17.0884 18.2475 16.2727 17.5858 15.6068C16.795 14.8119 16.0001 14.0212 15.2052 13.2304Z" fill="#181818"/>
        <path d="M14.4103 9.91346L15.946 9.65126C15.7047 8.24041 15.0388 6.96273 14.0274 5.94725C12.9579 4.87767 11.6053 4.20345 10.1153 3.99536L9.89893 5.53939C11.0517 5.7017 12.1005 6.22193 12.9287 7.05013C13.7111 7.83255 14.223 8.82306 14.4103 9.91346Z" fill="#181818"/>
        <path d="M16.8117 3.23789C15.0388 1.46496 12.7956 0.34543 10.3193 0L10.1029 1.54403C12.2421 1.84368 14.1815 2.81338 15.713 4.34077C17.1655 5.79324 18.1186 7.6286 18.464 9.64708L19.9997 9.38488C19.596 7.04595 18.4931 4.92342 16.8117 3.23789Z" fill="#181818"/>
    </g>
    <defs>
        <clipPath id="clip0">
            <rect width="20" height="20" fill="white"/>
        </clipPath>
    </defs>
</svg>
