<svg width="50" height="50" viewBox="0 0 50 50" fill="none" xmlns="http://www.w3.org/2000/svg">
    <g clip-path="url(#clip0)">
        <path d="M49.908 11.8563C49.7359 11.2164 49.3161 10.6708 48.7416 10.3401C48.1668 10.0077 47.4833 9.91779 46.8421 10.0899C46.2018 10.2624 45.6562 10.6818 45.3255 11.2563L44.9089 11.9812C44.513 11.7538 44.0073 11.8877 43.7758 12.2815L41.6595 15.8889L40.9345 15.4723C40.7425 15.3612 40.5139 15.3311 40.2999 15.3889C40.0855 15.447 39.9032 15.5878 39.793 15.7806C39.5672 16.1789 39.7047 16.685 40.1013 16.9137L40.8263 17.3303L33.7442 29.6032L31.9944 34.2777L31.1612 35.8354C30.6734 36.6841 30.7255 37.739 31.2946 38.5351L29.42 40.8346L28.8952 39.5185C28.6584 38.9318 28.1104 38.5299 27.4802 38.4806C26.8496 38.431 26.2455 38.7426 25.9204 39.2849L25.6206 39.7931L25.3374 36.4603C25.2723 35.6719 24.6617 35.038 23.8765 34.9428C23.0909 34.848 22.3472 35.3187 22.0962 36.0689L20.0466 42.2178C19.9034 42.6527 20.1377 43.1214 20.5714 43.2678C20.6527 43.3057 20.7402 43.3284 20.8297 43.3341C21.1877 43.3354 21.5067 43.1071 21.6214 42.7678L23.6625 36.619L23.9542 40.0014C24.0144 40.7231 24.5331 41.3232 25.2385 41.4867C25.944 41.6503 26.6738 41.3394 27.0453 40.7182L27.3537 40.2097L27.8703 41.518C28.0896 42.0693 28.5856 42.4627 29.1726 42.5502C29.7597 42.6376 30.3488 42.4061 30.7198 41.9428L32.6612 39.4851C32.876 39.5412 33.0973 39.5693 33.3194 39.5685C34.2124 39.5754 35.0416 39.1051 35.494 38.335L36.3272 36.9436L39.5017 33.086L46.6586 20.663L47.3836 21.0796C47.5769 21.1903 47.7176 21.3729 47.775 21.5882C47.8328 21.8017 47.8027 22.0296 47.692 22.2212L44.3592 27.9954C44.2335 28.1849 44.1908 28.4176 44.2413 28.6398C44.2917 28.8615 44.4304 29.0531 44.6257 29.1699C44.8177 29.2814 45.0464 29.3115 45.2604 29.2537C45.4748 29.1955 45.657 29.0547 45.7673 28.8619L49.1 23.0877C49.4324 22.5129 49.5223 21.8294 49.3498 21.1882C49.1773 20.5479 48.7579 20.0023 48.1835 19.6716L47.4585 19.255L49.5415 15.6472C49.7689 15.2513 49.635 14.7461 49.2416 14.5142L49.6582 13.7892C49.9995 13.2054 50.0899 12.5081 49.908 11.8563ZM46.7669 12.0895C46.8771 11.8966 47.0602 11.7554 47.2754 11.6981C47.4894 11.6452 47.7156 11.6749 47.9084 11.7815C48.1017 11.8917 48.2424 12.0748 48.3002 12.2896C48.3531 12.5036 48.3234 12.7298 48.2168 12.9226L47.8002 13.6476L46.3503 12.8144L46.7669 12.0895ZM35.4106 35.3525L34.994 35.1108L33.7609 34.394L34.9439 31.228L37.5684 32.7443L35.4106 35.3525ZM32.911 37.7601C32.5591 37.5148 32.4509 37.0429 32.6612 36.6686L33.0778 35.944L34.5273 36.7772L34.1107 37.4937C33.994 37.6963 33.7979 37.8403 33.5696 37.8911C33.3414 37.9416 33.1026 37.8944 32.911 37.7601ZM38.5184 31.3782L35.6355 29.7118L42.3011 18.1635L45.1839 19.8298L38.5184 31.3782ZM46.0171 18.3884L43.1343 16.722L44.8006 13.8392L47.6835 15.5056L46.0171 18.3884Z" fill="white"/>
        <path d="M13.1475 37.3436L10.1984 40.285L8.43197 38.5186C8.10691 38.1955 7.5821 38.1955 7.25704 38.5186C7.09919 38.6752 7.0105 38.888 7.0105 39.1101C7.0105 39.3322 7.09919 39.5454 7.25704 39.7016L9.0235 41.4681C9.33595 41.7781 9.75824 41.9518 10.1984 41.9514C10.6411 41.9538 11.067 41.7801 11.3815 41.4681L14.3225 38.5186C14.6056 38.1878 14.5865 37.6951 14.2789 37.3876C13.971 37.0796 13.4783 37.0605 13.1475 37.3436Z" fill="white"/>
        <path d="M3.33276 39.5848C3.33276 43.4965 6.50361 46.6669 10.4149 46.6669C14.3262 46.6669 17.497 43.4965 17.497 39.5848C17.497 39.1247 17.124 38.7516 16.6638 38.7516C16.2037 38.7516 15.8306 39.1247 15.8306 39.5848C15.8306 42.5758 13.4059 45.0006 10.4149 45.0006C7.42386 45.0006 4.99915 42.5758 4.99915 39.5848C4.99915 36.5938 7.42386 34.1691 10.4149 34.1691C11.5874 34.1658 12.7285 34.5462 13.6643 35.2525C14.0324 35.5287 14.5548 35.4539 14.8306 35.0857C15.1069 34.7175 15.0324 34.1955 14.6642 33.9193C12.5182 32.3099 9.64679 32.0511 7.24771 33.2505C4.84821 34.4502 3.33276 36.9026 3.33276 39.5848Z" fill="white"/>
        <path d="M29.9948 6.67395C30.455 6.67395 30.828 6.30129 30.828 5.84076C30.828 5.38063 30.455 5.00757 29.9948 5.00757H8.33185C7.87172 5.00757 7.49866 5.38063 7.49866 5.84076V9.17353C7.49866 9.63406 7.87172 10.0067 8.33185 10.0067H29.9948C30.455 10.0067 30.828 9.63406 30.828 9.17353C30.828 8.7134 30.455 8.34033 29.9948 8.34033H9.16504V6.67395H29.9948Z" fill="white"/>
        <path d="M10.8315 11.6731C10.3714 11.6731 9.99829 12.0462 9.99829 12.5063C9.99829 12.9668 10.3714 13.3395 10.8315 13.3395H27.4953C27.9554 13.3395 28.3285 12.9668 28.3285 12.5063C28.3285 12.0462 27.9554 11.6731 27.4953 11.6731H10.8315Z" fill="white"/>
        <path d="M32.4945 17.5054H14.1642C13.7041 17.5054 13.3311 17.8784 13.3311 18.3386C13.3311 18.7991 13.7041 19.1717 14.1642 19.1717H32.4945C32.9546 19.1717 33.3276 18.7991 33.3276 18.3386C33.3276 17.8784 32.9546 17.5054 32.4945 17.5054Z" fill="white"/>
        <path d="M24.1625 23.3376C24.1625 22.8775 23.7894 22.5044 23.3293 22.5044H6.66547C6.20534 22.5044 5.83228 22.8775 5.83228 23.3376C5.83228 23.7981 6.20534 24.1708 6.66547 24.1708H23.3293C23.7894 24.1708 24.1625 23.7981 24.1625 23.3376Z" fill="white"/>
        <path d="M32.4945 22.5044H26.6622C26.202 22.5044 25.829 22.8775 25.829 23.3376C25.829 23.7981 26.202 24.1708 26.6622 24.1708H32.4945C32.9546 24.1708 33.3277 23.7981 33.3277 23.3376C33.3277 22.8775 32.9546 22.5044 32.4945 22.5044Z" fill="white"/>
        <path d="M14.9974 28.3368C15.4575 28.3368 15.8306 27.9642 15.8306 27.5036C15.8306 27.0435 15.4575 26.6704 14.9974 26.6704H6.66547C6.20534 26.6704 5.83228 27.0435 5.83228 27.5036C5.83228 27.9642 6.20534 28.3368 6.66547 28.3368H14.9974Z" fill="white"/>
        <path d="M18.3301 28.3368H24.1625C24.6226 28.3368 24.9957 27.9642 24.9957 27.5036C24.9957 27.0435 24.6226 26.6704 24.1625 26.6704H18.3301C17.87 26.6704 17.4969 27.0435 17.4969 27.5036C17.4969 27.9642 17.87 28.3368 18.3301 28.3368Z" fill="white"/>
        <path d="M37.4936 38.3351C37.0335 38.3351 36.6604 38.7082 36.6604 39.1683V47.5002C36.6604 47.9607 36.2874 48.3334 35.8272 48.3334H2.49957C2.03945 48.3334 1.66638 47.9607 1.66638 47.5002V2.50788C1.66638 2.04775 2.03945 1.67468 2.49957 1.67468H35.8272C36.2874 1.67468 36.6604 2.04775 36.6604 2.50788V18.1554C36.6604 18.6156 37.0335 18.9886 37.4936 18.9886C37.9537 18.9886 38.3268 18.6156 38.3268 18.1554V2.50788C38.3268 1.12749 37.2076 0.00830078 35.8272 0.00830078H2.49957C1.11919 0.00830078 0 1.12749 0 2.50788V47.5002C0 48.881 1.11919 49.9998 2.49957 49.9998H35.8272C37.2076 49.9998 38.3268 48.881 38.3268 47.5002V39.1683C38.3268 38.7082 37.9537 38.3351 37.4936 38.3351Z" fill="white"/>
    </g>
    <defs>
        <clipPath id="clip0">
            <rect width="50" height="50" fill="white"/>
        </clipPath>
    </defs>
</svg>
