<svg width="50" height="50" viewBox="0 0 50 50" fill="none" xmlns="http://www.w3.org/2000/svg">
    <path d="M8.59375 11.7188C6.87031 11.7188 5.46875 13.1203 5.46875 14.8438C5.46875 16.5672 6.87031 17.9688 8.59375 17.9688C10.3172 17.9688 11.7188 16.5672 11.7188 14.8438C11.7188 13.1203 10.3172 11.7188 8.59375 11.7188ZM8.59375 16.4062C7.73203 16.4062 7.03125 15.7055 7.03125 14.8438C7.03125 13.982 7.73203 13.2812 8.59375 13.2812C9.45547 13.2812 10.1562 13.982 10.1562 14.8438C10.1562 15.7055 9.45547 16.4062 8.59375 16.4062Z" fill="white"/>
    <path d="M22.6562 22.6562C20.9328 22.6562 19.5312 24.0578 19.5312 25.7812C19.5312 27.5047 20.9328 28.9062 22.6562 28.9062C24.3797 28.9062 25.7812 27.5047 25.7812 25.7812C25.7812 24.0578 24.3797 22.6562 22.6562 22.6562ZM22.6562 27.3438C21.7945 27.3438 21.0938 26.643 21.0938 25.7812C21.0938 24.9195 21.7945 24.2188 22.6562 24.2188C23.518 24.2188 24.2188 24.9195 24.2188 25.7812C24.2188 26.643 23.518 27.3438 22.6562 27.3438Z" fill="white"/>
    <path d="M10.3853 22.8853L8.59385 24.6767L6.80244 22.8853L5.69775 23.9899L7.48916 25.7813L5.69775 27.5728L6.80244 28.6774L8.59385 26.886L10.3853 28.6774L11.4899 27.5728L9.69853 25.7813L11.4899 23.9899L10.3853 22.8853Z" fill="white"/>
    <path d="M46.875 49.2188C47.307 49.2188 47.6562 48.8695 47.6562 48.4375V46.875C47.6562 45.8578 47.0008 44.9984 46.0938 44.675V31.25C47.8172 31.25 49.2188 29.8484 49.2188 28.125V17.1875C49.2188 15.0336 47.4664 13.2812 45.3125 13.2812H44.1094C44.5148 12.8297 44.8328 12.3016 45.0391 11.7188H45.3125C46.6047 11.7188 47.6562 10.6672 47.6562 9.375C47.6562 8.68516 47.3508 8.07031 46.875 7.64062V7.03125C46.875 3.58516 44.0711 0.78125 40.625 0.78125C37.1789 0.78125 34.375 3.58516 34.375 7.03125V7.64062C33.8992 8.06953 33.5938 8.68516 33.5938 9.375C33.5938 10.6672 34.6453 11.7188 35.9375 11.7188H36.2109C36.418 12.3016 36.7359 12.8297 37.1406 13.2812H28.9062V10.1562H29.6875C30.1195 10.1562 30.4688 9.80625 30.4688 9.375V6.25C30.4688 5.81875 30.1195 5.46875 29.6875 5.46875H17.9688V1.5625C17.9688 1.13125 17.6195 0.78125 17.1875 0.78125H14.0625C13.6305 0.78125 13.2812 1.13125 13.2812 1.5625V5.46875H1.5625C1.13047 5.46875 0.78125 5.81875 0.78125 6.25V9.375C0.78125 9.80625 1.13047 10.1562 1.5625 10.1562H2.34375V30.4688H1.5625C1.13047 30.4688 0.78125 30.818 0.78125 31.25V34.375C0.78125 34.807 1.13047 35.1562 1.5625 35.1562H5.27578L2.36172 48.268C2.31094 48.4992 2.36719 48.7406 2.51484 48.9266C2.66406 49.1109 2.8875 49.2188 3.125 49.2188H7.03125C7.39766 49.2188 7.71406 48.9648 7.79453 48.607L8.7 44.5312H22.55L23.4555 48.607C23.5359 48.9648 23.8523 49.2188 24.2188 49.2188H28.125C28.3625 49.2188 28.5859 49.1109 28.7344 48.9266C28.882 48.7414 28.9391 48.4992 28.8875 48.268L25.9742 35.1562H29.6875C30.1195 35.1562 30.4688 34.807 30.4688 34.375V31.25C30.4688 30.818 30.1195 30.4688 29.6875 30.4688H28.9062V17.9688H33.5938C34.4555 17.9688 35.1562 18.6695 35.1562 19.5312V44.675C34.2492 44.9984 33.5938 45.8578 33.5938 46.875V48.4375C33.5938 48.8695 33.943 49.2188 34.375 49.2188H46.875ZM42.1875 14.8438C42.1875 15.7055 41.4867 16.4062 40.625 16.4062C39.7633 16.4062 39.0625 15.7055 39.0625 14.8438H42.1875ZM45.3125 10.1562V8.59375C45.7438 8.59375 46.0938 8.94453 46.0938 9.375C46.0938 9.80547 45.7438 10.1562 45.3125 10.1562ZM35.1562 9.375C35.1562 8.94453 35.5062 8.59375 35.9375 8.59375V10.1562C35.5062 10.1562 35.1562 9.80547 35.1562 9.375ZM35.9375 7.03125C35.9375 4.44609 38.0398 2.34375 40.625 2.34375C43.2102 2.34375 45.3125 4.44609 45.3125 7.03125H44.5312H43.2922L41.9586 5.69766C41.6531 5.39219 41.1594 5.39219 40.8539 5.69766L39.5203 7.03125H36.7188H35.9375ZM37.5 10.1562V8.59375H39.8438C40.0516 8.59375 40.25 8.51172 40.3961 8.36484L41.4062 7.35469L42.4164 8.36484C42.5625 8.51172 42.7609 8.59375 42.9688 8.59375H43.75V10.1562C43.75 11.8797 42.3484 13.2812 40.625 13.2812C38.9016 13.2812 37.5 11.8797 37.5 10.1562ZM14.8438 2.34375H16.4062V5.46875H14.8438V2.34375ZM2.34375 7.03125H28.9062V8.59375H2.34375V7.03125ZM6.40469 47.6562H4.09922L6.87656 35.1562H9.18203L6.40469 47.6562ZM20.4672 35.1562L21.5086 39.8438H9.74141L10.7828 35.1562H20.4672ZM9.04688 42.9688L9.39375 41.4062H21.8555L22.2023 42.9688H9.04688ZM27.1508 47.6562H24.8453L22.068 35.1562H24.3734L27.1508 47.6562ZM28.9062 33.5938H2.34375V32.0312H28.9062V33.5938ZM27.3438 30.4688H3.90625V10.1562H27.3438V13.2812H26.5625H25C23.7078 13.2812 22.6562 14.3328 22.6562 15.625C22.6562 15.6344 22.6586 15.643 22.6594 15.6523C21.9469 14.693 20.8148 14.0625 19.5312 14.0625H13.2812V15.625H19.5312C20.8234 15.625 21.875 16.6766 21.875 17.9688V19.2078L20.8648 18.1977L19.7602 19.3023L22.1039 21.6461C22.2562 21.7984 22.4562 21.875 22.6562 21.875C22.8563 21.875 23.0563 21.7984 23.2086 21.6461L25.5523 19.3023L24.4477 18.1977L23.4375 19.2078V17.9688C23.4375 17.7406 23.4078 17.5211 23.3703 17.3039C23.7922 17.7141 24.3664 17.9688 25 17.9688H26.5625H27.3438V30.4688ZM25.7812 16.4062H25C24.5688 16.4062 24.2188 16.0555 24.2188 15.625C24.2188 15.1945 24.5688 14.8438 25 14.8438H25.7812V16.4062ZM33.5938 16.4062H27.3438V14.8438H37.5C37.5 16.5672 38.9016 17.9688 40.625 17.9688C42.3484 17.9688 43.75 16.5672 43.75 14.8438H45.3125C46.6047 14.8438 47.6562 15.8953 47.6562 17.1875V26.5625H46.0938V17.9688H44.5312V26.5625H36.7188V19.5312C36.7188 17.8078 35.3172 16.4062 33.5938 16.4062ZM39.8438 47.6562H35.1562V46.875C35.1562 46.4437 35.5062 46.0938 35.9375 46.0938H39.8438V47.6562ZM39.8438 31.25V44.5312H36.7188V28.125H44.5312V44.5312H41.4062V31.25H39.8438ZM46.0938 47.6562H41.4062V46.0938H45.3125C45.7438 46.0938 46.0938 46.4437 46.0938 46.875V47.6562ZM46.0938 29.6875V28.125H47.6562C47.6562 28.9867 46.9555 29.6875 46.0938 29.6875Z" fill="white"/>
</svg>
