<svg width="50" height="50" viewBox="0 0 50 50" fill="none" xmlns="http://www.w3.org/2000/svg">
    <g clip-path="url(#clip0)">
        <path d="M48.8187 23.3951C48.0703 22.7046 47.0521 22.2781 46.0252 22.2247C44.859 22.1645 43.7665 22.5803 42.9528 23.3943L37.3933 28.8955C37.2834 28.7051 37.1579 28.5255 37.0172 28.3588C36.3332 27.5466 35.333 27.0995 34.2012 27.0995H26.4184C24.9509 27.0995 23.5192 26.9092 22.1635 26.5342C18.6288 25.5565 15.252 26.2706 12.3975 28.6006C11.2367 29.5482 10.3898 30.5789 9.85423 31.3304L8.45881 29.9762C8.27532 29.7981 8.0266 29.697 7.77064 29.697C7.76835 29.697 7.76644 29.697 7.76415 29.697C7.49903 29.6989 7.24268 29.8091 7.05882 29.9999L0.275138 37.0422C0.0935581 37.2306 -0.00524252 37.4839 0.000479527 37.7456C0.00620157 38.0077 0.115683 38.2564 0.305274 38.4368L11.7787 49.3617C11.9691 49.5429 12.2132 49.6333 12.457 49.6333C12.713 49.6333 12.9689 49.5338 13.1616 49.3362L19.8819 42.4415C20.0654 42.253 20.1673 41.9956 20.1623 41.7323C20.1573 41.4729 20.0486 41.2227 19.8625 41.0419L19.2773 40.4743L20.6166 40.3236C21.4269 40.2294 22.2509 40.1817 23.0664 40.1817H34.9076C36.8318 40.1817 38.466 39.7609 39.7653 38.9308C39.776 38.924 39.7866 38.9167 39.7973 38.9095C40.2627 38.586 40.685 38.2026 41.052 37.7704L49.0316 28.3828C50.3972 26.7764 50.3118 24.7718 48.8187 23.3951ZM12.4314 47.2671L2.37818 37.6945L7.79391 32.072L17.7884 41.7709L12.4314 47.2671ZM47.5328 27.1087L39.5532 36.4967C39.2999 36.7946 39.0096 37.0593 38.6895 37.2836C37.7141 37.9012 36.4419 38.2148 34.9076 38.2148H23.0661C22.1753 38.2148 21.2747 38.2671 20.3931 38.3697L17.4489 38.7L11.2844 32.7178C11.7127 32.0827 12.5005 31.0561 13.6415 30.1246C16.0134 28.1883 18.7043 27.618 21.639 28.4301C23.1656 28.8524 24.7735 29.0668 26.4184 29.0668H34.2012C35.5989 29.0668 35.9719 30.2776 35.9719 30.9928C35.9719 31.5154 35.8041 32.0129 35.5115 32.3577C35.1941 32.7312 34.7428 32.9204 34.1703 32.9204H27.3954C26.8521 32.9204 26.4119 33.361 26.4119 33.9042C26.4119 34.4474 26.8521 34.8876 27.3954 34.8876H34.1703C35.3139 34.8876 36.3225 34.4413 37.0107 33.6311C37.5833 32.9574 37.9098 32.0716 37.9373 31.1248L44.3402 24.789C45.2554 23.8738 46.6851 24.1035 47.4851 24.8412C47.8986 25.2227 48.4548 26.0242 47.5328 27.1087Z" fill="white"/>
        <path d="M24.3278 33.6423C24.2038 33.1132 23.6747 32.7855 23.1456 32.9091C22.6169 33.0331 22.2884 33.5622 22.4128 34.0913L22.4219 34.1314C22.5284 34.5845 22.9323 34.8905 23.3787 34.8905C23.4531 34.8905 23.5286 34.8821 23.6041 34.8645C24.1332 34.7406 24.4613 34.2111 24.3373 33.6824L24.3278 33.6423Z" fill="white"/>
        <path d="M6.64812 21.1426H16.2322C16.754 21.1426 17.237 20.9732 17.6299 20.6871C18.0228 20.9732 18.5057 21.1426 19.0276 21.1426H28.612C29.1339 21.1426 29.6168 20.9732 30.0097 20.6871C30.4026 20.9732 30.8856 21.1426 31.4074 21.1426H40.9915C42.3045 21.1426 43.3726 20.0741 43.3726 18.7611V14.2918C43.3726 12.2845 42.2492 10.5408 40.5677 9.68056C41.3825 8.69789 41.873 7.43752 41.873 6.06423C41.873 2.93579 39.3279 0.390625 36.1994 0.390625C33.071 0.390625 30.5258 2.93579 30.5258 6.06423C30.5258 7.43752 31.0164 8.69828 31.8312 9.68056C31.1045 10.0529 30.4824 10.5904 30.0097 11.2423C29.5371 10.59 28.9149 10.0525 28.1878 9.68056C29.0026 8.69828 29.4932 7.43752 29.4932 6.06423C29.4932 2.93579 26.948 0.390625 23.8196 0.390625C20.6912 0.390625 18.146 2.93579 18.146 6.06423C18.146 7.43752 18.637 8.69828 19.4518 9.68094C18.7247 10.0529 18.1025 10.5904 17.6299 11.2427C17.1572 10.5904 16.5351 10.0529 15.808 9.68056C16.6228 8.69828 17.1134 7.43752 17.1134 6.06461C17.1134 2.93579 14.5682 0.390625 11.4398 0.390625C8.31171 0.390625 5.76654 2.93579 5.76654 6.06461C5.76654 7.43752 6.25711 8.69828 7.07193 9.68094C5.39041 10.5412 4.2666 12.2852 4.2666 14.2922V18.7611C4.2666 20.0741 5.3351 21.1426 6.64812 21.1426ZM36.1998 2.35787C38.2434 2.35787 39.9062 4.02031 39.9062 6.06423C39.9062 8.10776 38.2434 9.77059 36.1998 9.77059C34.1559 9.77059 32.4935 8.10814 32.4935 6.06423C32.4931 4.02031 34.1559 2.35787 36.1998 2.35787ZM33.6444 11.1275C34.413 11.517 35.2809 11.7378 36.1994 11.7378C37.1184 11.7378 37.9862 11.517 38.7545 11.1275C40.2831 11.3937 41.4057 12.711 41.4057 14.2918V18.7611C41.4057 18.9896 41.22 19.1753 40.9915 19.1753H31.4074C31.1793 19.1753 30.9935 18.9896 30.9935 18.7611V14.2918C30.9931 12.7113 32.1162 11.3937 33.6444 11.1275ZM23.82 2.35787C25.8635 2.35787 27.5263 4.02031 27.5263 6.06423C27.5263 8.10776 25.8635 9.77059 23.82 9.77059C21.7761 9.77059 20.1136 8.10814 20.1136 6.06423C20.1136 4.02031 21.7761 2.35787 23.82 2.35787ZM21.2649 11.1275C22.0332 11.517 22.901 11.7378 23.82 11.7378C24.7389 11.7378 25.6064 11.517 26.3751 11.1275C27.9032 11.3937 29.0263 12.711 29.0263 14.2918V18.7611C29.0263 18.9896 28.8405 19.1753 28.612 19.1753H19.028C18.7995 19.1753 18.6137 18.9896 18.6137 18.7611V14.2918C18.6137 12.7113 19.7367 11.3937 21.2649 11.1275ZM11.4401 2.35787C13.4837 2.35787 15.1465 4.02031 15.1465 6.06423C15.1465 8.10776 13.4837 9.77059 11.4401 9.77059C9.39661 9.77059 7.73378 8.10776 7.73378 6.06423C7.73378 4.02031 9.39661 2.35787 11.4401 2.35787ZM6.23384 14.2918C6.23384 12.7113 7.35689 11.3937 8.88506 11.1275C9.65372 11.517 10.5212 11.7378 11.4401 11.7378C12.3591 11.7378 13.2266 11.517 13.9952 11.1275C15.5238 11.3937 16.6464 12.711 16.6464 14.2918V18.7611C16.6464 18.9896 16.4607 19.1753 16.2322 19.1753H6.64812C6.41962 19.1753 6.23384 18.9896 6.23384 18.7611V14.2918Z" fill="white"/>
    </g>
    <defs>
        <clipPath id="clip0">
            <rect width="50" height="50" fill="white"/>
        </clipPath>
    </defs>
</svg>
